<svg xmlns="http://www.w3.org/2000/svg" height="24" viewBox="0 -960 960 960" width="24"><path d="M151.001-236.616q-17.75 0-30.375-12.629t-12.625-30.384q0-17.756 12.625-30.371 12.625-12.615 30.375-12.615h657.998q17.75 0 30.375 12.629 12.625 12.628 12.625 30.384 0 17.755-12.625 30.37-12.625 12.616-30.375 12.616H151.001Zm0-201.385q-17.75 0-30.375-12.628-12.625-12.629-12.625-30.384 0-17.756 12.625-30.371 12.625-12.615 30.375-12.615h657.998q17.75 0 30.375 12.628 12.625 12.629 12.625 30.384 0 17.756-12.625 30.371-12.625 12.615-30.375 12.615H151.001Zm0-201.384q-17.75 0-30.375-12.629-12.625-12.628-12.625-30.384 0-17.755 12.625-30.37 12.625-12.616 30.375-12.616h657.998q17.75 0 30.375 12.629t12.625 30.384q0 17.756-12.625 30.371-12.625 12.615-30.375 12.615H151.001Z"/></svg>